<mxfile host="app.diagrams.net" modified="2021-10-18T07:23:41.264Z" agent="5.0 (Windows NT 10.0; Win64; x64) AppleWebKit/537.36 (KHTML, like Gecko) Chrome/94.0.4606.81 Safari/537.36" etag="E_wumXFtQYAbMe48xXgy" version="15.5.4" type="github">
  <diagram id="Eh46CzszVXNkp9-sjR_C" name="Page-1">
    <mxGraphModel dx="1108" dy="590" grid="1" gridSize="10" guides="1" tooltips="1" connect="1" arrows="1" fold="1" page="1" pageScale="1" pageWidth="827" pageHeight="1169" math="0" shadow="0">
      <root>
        <mxCell id="0" />
        <mxCell id="1" parent="0" />
        <mxCell id="r2PIuUKBtOEbJUY47sBG-18" value="" style="shape=image;verticalLabelPosition=bottom;labelBackgroundColor=#ffffff;verticalAlign=top;aspect=fixed;imageAspect=0;image=data:image/png,iVBORw0KGgoAAAANSUhEUgAAASAAAADYCAYAAABLNT5AAAAABHNCSVQICAgIfAhkiAAAAAlwSFlzAAALEgAACxIB0t1+/AAAADh0RVh0U29mdHdhcmUAbWF0cGxvdGxpYiB2ZXJzaW9uMy4yLjIsIGh0dHA6Ly9tYXRwbG90bGliLm9yZy+WH4yJAAAUGklEQVR4nO3da1BT574G8CcJIkJEDNftBqkoWqnDUGEoIq1uvMz4AXRQK1PtVJ2qvVmltgiOnXqZMoxYnU7xUrVT2bVO6+GglU4/OJYybQBbLwXq4GbgeCsIxIqAqQeNJOcDJ6nhklCT8K6sPL9PJllr+X8HfVjrzVrvX2EymUwgIhJAKboAIvJcDCAiEoYBRETCMICISBgGEBEJwwAiImEYQEQkDAOIiIRhABGRMAwgIhKGAUREwjCAiEgYBhARCcMAIiJhGEBEJAwDiIiEYQARkTAMICIShgFERMIwgIhIGAYQEQnDACIiYRhARCQMA4iIhGEAEZEwDCAiEsZLdAEDuXXrlugSiDzOuHHjhv3v5BkQEQnDAJKxjo4O5Ofno7OzU3QpRANiAMlYaWkpGhoacPr0adGlEA2IASRTHR0d0Gq1MJlM0Gq1PAsiSWIAyVRpaSmMRiMAwGg08iyIJIkBJFNVVVXo6ekBAPT09KCqqkpwRUT9eXQAyXmSdsaMGVCpVAAAlUqFGTNmCK6IqD+PDiA5T9KmpaVBqez98SqVSqSnpwuuiKg/jw0guU/SBgQEICUlBQqFAikpKRgzZozokoj68dgA8oRJ2rS0NERHR/PshyTLYwPIEyZpAwICkJOTw7MfkiyPDSBO0hKJ57EBxElaIvE8NoA4SUskniSX4xguaWlpaG5u5tkPkSAKk8lkEl1EX1wPiGj4cT0gIvIoDCAiEoYBRETCMICISBi734JVV1fj888/h9FoxJw5c7Bo0SKrz7/99lt8//33UKlU8Pf3x+uvv47g4GAAwLJlyzB+/HgAQFBQEDZv3uyCIRCRu7IZQEajEZ999hm2bt2KwMBA5ObmIiEhAeHh4ZZtnnrqKeTn52PkyJE4c+YMjh07hqysLACAt7c3CgoKXDsCInJbNi/BGhsbERYWhtDQUHh5eSE5ORnnz5+32mbatGkYOXIkACA6Ohrt7e2uq5aIZMXmGVB7ezsCAwMtrwMDA9HQ0DDo9mVlZYiLi7O8NhgMyMnJgUqlwsKFC5GYmOiEkolILpx2J/SPP/6Iq1evYtu2bZb39u/fD41Gg7a2NuzYsQPjx49HWFhYv33Pnj2Ls2fPAgDy8/MRFBTkrLKISMJsBpBGo8GdO3csr+/cuQONRtNvu9raWpw8eRLbtm3DiBEjrPYHgNDQUMTExOD69esDBtDcuXMxd+5cy+s//vjj74+EiBwiuTuhJ06ciJaWFuh0Ojx69AiVlZVISEiw2ubatWs4fPgwsrOzrR7o1Ov1MBgMAICuri7U19dbTV4TEdk8A1KpVFi9ejU+/PBDGI1G/Otf/0JERAS+/vprTJw4EQkJCTh27Bi6u7uxZ88eAH993d7c3IxDhw5BqVTCaDRi0aJFDCAissKHUYkIgAQvwYiIXMnj1gPSarVWk9w3b9603K0N9F5CpqSkiCiNyON4/CXYqVOn+j1eQuSJeAlGRB6FAUREwjCAiEgYBhARCcMAIiJhGEBEJIzH3Qckd7zPidwJA0hm+oYL73MiKeMlGBEJwwAiImEYQEQkDAOIiIRhABGRMAwgIhKGX8OT2+h7jxPA+5zc3ZACyJH2zOXl5SgpKQEAZGRkYPbs2c4dAXmMgYKF9zm5N7uXYOb2zFu2bMHevXtRUVGBpqYmq23M7Zl3796NpKQkHDt2DEBvZ4zi4mLk5eUhLy8PxcXF0Ov1rhkJEbkduwHkSHvm6upqxMbGQq1WQ61WIzY2FtXV1S4YBhG5I7sBNFB7Zlv93x9vz9x3X41Gw97xRGTh1EnogdozD4XI1sy+vr6ybgXN8ZGU2Q0gR9ozazQa1NXVWbZpb29HTExMv31Ftma+f/++rFtBc3w0VJJclN6R9sxxcXGoqamBXq+HXq9HTU2N5fKMiMjuGZAj7ZnVajUWL16M3NxcAMCSJUugVqtdOyIichtDmgOaPn06pk+fbvXesmXLLH9+//33B903NTUVqampT1geEckZH8UgImEYQEQkDAOISII6OjqQn5+Pzs5O0aW4FAOISIJKS0vR0NCA06dPiy7FpRhARBLT0dEBrVYLk8kErVYr67MgBhCRxJSWlsJoNALofRhczmdBDCAiiamqqkJPTw8AoKenB1VVVYIrch0GEJHEzJgxAyqVCkDvjcAzZswQXJHrMICIJCYtLQ1KZe9/TaVSifT0dMEVuQ4DiEhiAgICkJKSAoVCgZSUFKvnK+WGa0ITSVBaWhqam5tlffYDMICIJCkgIAA5OTmiy3A5XoIRkTAMICIShgFERMIwgIhIGNlPQp/+4ii6dW2Dft50txMn/qd+0M99QkKR/vJKF1RGRLIPoG5dG55vbbC9Uatu0I9+cnI9RPQXuwFkry1zXV0dioqKcOPGDWzcuBFJSUmWz5YtW2bp221eJ5qIyMxmAJnbMm/duhWBgYHIzc1FQkICwsPDLdsEBQXhjTfeQGlpab/9vb29UVBQ4PyqiUgWbAbQ422ZAVjaMj8eQCEhIQAAhULhwjKJSI5sBtBAbZkbGuzMpzzGYDAgJycHKpUKCxcuRGJi4pNXSkSy49JJ6P3790Oj0aCtrQ07duzA+PHjERYW1m87V7ZmNndpdWR/d279K/fWxXIfn9zZDKChtmW2tT8AhIaGIiYmBtevXx8wgFzZmtlgMDi8vzu3/pV762K5j284Sa4181DaMg9Gr9db/vN3dXWhvr7eau6IiMjmGdBQ2jI3NjZi9+7d+PPPP3Hx4kWcOHECe/bsQXNzMw4dOgSlUgmj0YhFixYxgJzs6Nf/jda7f9rcpvN2C/7T+u9BPw8b64eVyxY7uzSiIbE7B2SvLfOkSZNw8ODBfvtNmTIFH330kRNKpMG03v0T/xkVbXuj8dFosfX53aF/qUDkbHwWjIiEYQARkTCyfxaM3Ffxf51GV2e3zW3adE1o/+PEoJ/7j/HBkqXyXtbUnTGASLK6Orvxz5DnbW7zzxDbx2jW8XFiKeMlGBEJwwAiImEYQEQkjOzngJruduL7+8Yn3l93t9OJ1RANTqvVWj1WcvPmTct6WkDv0jcpKSkiSnMZ2QdQ+NgxeP7B4Cse2vPTWOl2pey83QKFscuxYyht30lNw6dvuJw6darfAoByI/sAkrMxwf9Ai707oe0d4395JzSJwzkgIhKGAUREwjCAiEgYBhARCcMAIiJhGEBEJAwDiIiEYQARkTBDuhHRkfbM5eXlKCkpAQBkZGRg9uzZzqueiNya3TMgc3vmLVu2YO/evaioqEBTU5PVNub2zH1vJdfr9SguLkZeXh7y8vJQXFwMvV7v3BEQkduyG0CPt2f28vKytGd+XEhICCIjI/u1Z66urkZsbCzUajXUajViY2NRXV3t3BEQkduyG0ADtWdub28f0sH77qvRaIa8LxHJnyQeRmVr5ifj6NjMx5Dq+P6404q7d7536Bg9aJfs+OzxhLbTdgPIkfbMGo0GdXV1ltft7e2IiYnptx1bMz8Zg8Hg8K8QKY8vKDDM7prQ9jTrfpLs+OwZ7rbTkmvNDDjWnjkuLg41NTXQ6/XQ6/WoqalBXFycw0UTkTzY/f3pSHtmtVqNxYsXIzc3FwCwZMkSqNVqlw+KiNzDkE7gn7Q9MwCkpqYiNTXVgRKJSK4kMQntSj4hobDVGarpbifCbSy76hMS6vyiiAiABwRQ+ssrbX7uCevuEkkVnwUjImEYQEQkjOwvweQsbKwfcNd2V4vO2y0YE/wP28cgEoQB5MZWLltsdxvOcZGU8RKMiIRhABGRMAwgIhKGAUREwjCAiEgYBhARCcOv4YkEOX78uM0VQu/cudNv/fW+NBoNXnrpJWeXNmwYQESCtLe3w2g0Dvr52LFjbX5uPoY74yUYEQnDMyCSLP8xPmjW2VpMBWjTNSE0JNzmMUi6GEAkWUuWptvdho+auDdeghGRME5pzWwwGFBYWIirV69i9OjR2LhxI0JCQqDT6ZCVlWVZbT86Ohpr1651/iiIyC3ZDSBza+atW7ciMDAQubm5SEhIQHj4X9fdZWVl8PPzwyeffIKKigp8+eWXyMrKAgCEhYWhoKDAdSMgIrfllNbMFy5cwOzZswEASUlJuHz5Mkwmk0sKJiL5sHsGNFBr5oaGhkG3UalU8PX1xb179wAAOp0O2dnZGDVqFDIzMzF16lRn1k9Ebsyl34KNHTsW+/fvx+jRo3H16lUUFBTgo48+gq+vr9V2rmzNbI/c299yfNI1YsQIPHjwwOFjuOv4ASe1ZjZvExgYiJ6eHty/fx+jR4+GQqGw9C+PiopCaGgoWlpaMHHiRKv9Xdma2Z7hbn873Dg+6XK0bbj5GM4av4jWzHYD6PHWzBqNBpWVlXj77bettomPj0d5eTkmT56Mc+fO4ZlnnoFCoUBXVxfUajWUSiXa2trQ0tKC0FD22SICen+Zd3d3O3QMHx/3vtHSKa2ZU1NTUVhYiPXr10OtVmPjxo0AgLq6Opw4cQIqlQpKpRJr1qxha2ai/xcYGGj3WS97lEr3vpXPKa2Zvb298c477/TbLykpCUlJSQ6W6FxardbqlPXmzZs4deqU5XVQUBBSUlJElEbkcTzuUQyGC5F0uPf5GxG5NQYQEQnjcZdgcsc5LnInDCCZYbiQO+ElGBEJwwAiImEYQEQkDAOIiIThJDS5jb7f8AHu/S2fRqOx2xfs8aVwBjuGO1OYJLhy2K1bt0SXQCTccC+4L+JpeF6CEZEwDCAiEoYBRETCMICISBgGEBEJwwAiImFc2hkVAE6ePImysjIolUqsWrUKcXFxzh8FkQx44koGLu2M2tTUhMrKSuzZswd3797Fzp078fHHH7v9OrZEriC3cBkKl3ZGPX/+PJKTkzFixAiEhIQgLCwMjY2NLhkIEbkfuwE0UGfUvrePD9YZte++9m49JyLPIolnwUR2RiUicVzaGbXvvu3t7QM+PCeyMyoR9ZLks2CPd0Z99OgRKisrkZCQYLWNuTMqAKvOqAkJCaisrITBYIBOp0NLSwsmTZrkkoEQkfsZ0tPwly5dQlFRkaUzakZGhlVn1IcPH6KwsBDXrl2zdEY1t2AuKSnBDz/8AKVSiZUrV+LZZ591+aCIyE2YPNzmzZtFl+BSHJ/7kvPYzHhDDhEJwwAiImE8PoAe//ZNjjg+9yXnsZlJcklWIvIMHn8GRETiSOJOaFd788034ePjA4VCgYCAALz11lsICAgY9P3u7m588cUXqK2tha+vLwBg3rx5kjkl7ujoQFFRERoaGuDn5wcvLy8sXLgQfn5+2L59O9atW4c5c+YAAK5fv47s7GysWLEC6enp2LdvH6qqqnD48GGMGjUKAHD06FF89913OHLkCPz9/UUObVC2xrxr1y6EhITg0aNHSE5OxtKlS0WXa9dg40lMTATQ+zOpqqrCgQMHLA9vl5eX48CBA9i1axciIyMBAJs2bcLmzZstq0+4G9kHkMlkgtFoxAcffAB/f38cP34cJSUlWL16NQAM+P7BgwcREhJieXK/q6sLZWVlgkfSy2QyoaCgALNmzcKGDRsAALdv38aFCxfg5+eHiIgIVFVVWQJIq9Va/rGahYWF4fz583jhhRdgNBpx+fJlSbd3sTfmqVOnIicnB93d3cjOzkZ8fDyioqIEVz04W+MBeleg+OWXXxAUFIS6ujpMmzbNsq9Go0FJSQmysrKE1O5ssrwE0+l02LBhAwoLC7Fp0yarx0FiYmLQ1tbWbx/z+62trWhsbERmZqblN4+/v/+wtkex5fLly/Dy8sL8+fMt7wUHB2PBggWWPxsMBnR0dMBkMqGmpqbfzZ/JycmorKwEANTV1WHKlClQqVTDN4i/yd6YzXx8fBAVFYXW1tbhLvFvsTeeuro6REREYN68eaioqLDaNz4+Hk1NTbJpXSXLAAKA1tZWzJ8/H3v27EFwcLDl/YsXLyIiIqLf9ub3m5qaEBkZKdk1i37//XdMmDDB5jbPPfcczp07h/r6ekyYMAFeXtYnuuPGjcO9e/eg1+uh1Woxc+ZMV5bssKGMGQDu3buHhoaGAX++UmJvPOafSWJiIi5duoRHjx5ZPlMoFEhPT0dJSclwlOpysr0ECwoKwuTJky2vt2/fDqVSicjISGRmZg76/pUrV6yOU1JSgqqqKnR1deHTTz8dtvqH6siRI6ivr4eXlxdWrFgBoPcMZ+/evWhubsbMmTNRX1/fb7/ExERUVlaisbERa9euHe6yHdJ3zFeuXEF2djYUCgUWLlwo+QDq6/Hx7Ny5E7/++iteeeUVjBo1CtHR0aipqUF8fLxl+5SUFJSUlECn0wms2jlkG0A+Pj5Wr81zPX31fT88PBw3btyA0WiEUqlERkYGMjIy8PLLL7u85qGIiIjAzz//bHn96quvoqurC7m5uZb3AgIC4OXlhdraWqxatWrAAEpOTkZOTg5mzZol2bM9M3tjNs8BuQtb46mursb9+/fx7rvvAgAePHgAb29vqwBSqVRIS0uzWq7VXUn7X54AYWFhiIqKwldffQWj0QgAePjwoeCq/jJt2jQYDAacOXPG8t5A9b344otYvnz5oOESHByMzMxMq3kIqRrqmN2FrfFUVFRg3bp12LdvH/bt24fCwkLU1tbiwYMHVseYPXs2fvvtN3R1dQ1r7c4m2zMgR7z22ms4duwY1q9fj9GjR8Pb2xvLly8XXRaA3jmA9957D0VFRfjmm2/g7+8PHx+ffvVNmTLF7rHmzZvnqjKdaqhjdheDjWfp0qUoKirCmjVrLNv6+Pjg6aefxsWLF62O4eXlhQULFuDo0aPDXL1z8U5oIhKGl2BEJAwDiIiEYQARkTAMICIShgFERMIwgIhIGAYQEQnDACIiYRhARCQMA4iIhGEAEZEw/wf6YZjz0zsl2gAAAABJRU5ErkJggg==;" vertex="1" parent="1">
          <mxGeometry x="1.66" y="110" width="173.34" height="130" as="geometry" />
        </mxCell>
        <mxCell id="r2PIuUKBtOEbJUY47sBG-4" value="&lt;span style=&quot;color: rgb(33 , 33 , 33) ; font-size: 14px ; font-style: normal ; font-weight: 400 ; letter-spacing: normal ; text-indent: 0px ; text-transform: none ; word-spacing: 0px ; background-color: rgb(255 , 255 , 255) ; display: inline ; float: none&quot;&gt;systolic_peak&lt;/span&gt;" style="text;whiteSpace=wrap;html=1;fontFamily=Times New Roman;" vertex="1" parent="1">
          <mxGeometry x="50" y="102" width="90" height="30" as="geometry" />
        </mxCell>
        <mxCell id="r2PIuUKBtOEbJUY47sBG-19" value="" style="shape=image;verticalLabelPosition=bottom;labelBackgroundColor=#ffffff;verticalAlign=top;aspect=fixed;imageAspect=0;image=data:image/png,iVBORw0KGgoAAAANSUhEUgAAASAAAADYCAYAAABLNT5AAAAABHNCSVQICAgIfAhkiAAAAAlwSFlzAAALEgAACxIB0t1+/AAAADh0RVh0U29mdHdhcmUAbWF0cGxvdGxpYiB2ZXJzaW9uMy4yLjIsIGh0dHA6Ly9tYXRwbG90bGliLm9yZy+WH4yJAAAXBElEQVR4nO3de3BU9f3/8Wc2m5iEEMgmJNESAomgclEimcAEDBeFqdMWHC6VBpmKP4ROkVtVLi0z3gYLclGRRBFryVTQ+mNSsDOdTscvZZAk2IANlIYvkC9FjCREyWoIAXLZ/f7BN8csIRfcTT67yesx44w553M+fD4DvDh7dvf9DnK73W5ERAywmV6AiPRcCiARMUYBJCLGKIBExBgFkIgYowASEWMUQCJijAJIRIxRAImIMQogETFGASQixiiARMQYBZCIGKMAEhFjFEAiYowCSESMUQCJiDEKIBExRgEkIsYogETEGAWQiBijABIRYxRAImKMAkhEjFEAiYgxCiARMcZuegE3c/78edNLEOlx7rjjji7/NXUHJCLGKIBExBjrJVhxcTG///3vcblcPPjggzzyyCMeA0tKSsjNzeXzzz9n2bJljBkzBoDjx4+Tm5trjTt//jxLly4lPT2d7OxsSkpKiIiIAGDRokUMHDiwC7YlIoHADuByufjd737HmjVriImJYfXq1aSlpdG/f39rYGxsLL/85S/585//7DHB8OHD2bBhAwA1NTUsXryY++67zzo/d+5cK6xERJqzA5SWlpKQkEB8fDwAGRkZFBUVeQRQXFwcAEFBQa1OdujQIVJTU7nttts6c80i0k3YAaqqqoiJibEOxsTEcPr06VueLD8/nx//+Mcex95//312797N8OHDmTNnDiEhIV4u2TsHDx7k66+/tn4+d+4cAwYMsH6OjY1l3LhxJpYm0uP47G14p9PJuXPnPF5+ZWVl0bdvXxoaGti2bRt79+5l5syZLa79+OOP+fjjjwFYt24dsbGxvlpWCzc+29q1axdZWVmd9uuJSOvsAA6Hg4sXL1oHL168iMPhuKWJCgsLSU9Px27/LtOio6MBCAkJYeLEiS2eHzV56KGHeOihh6yfm9+hdLba2tou/fVE/JWxzwGlpKRQXl5OZWUlDQ0NFBQUkJaWdksT5efnM3bsWI9jTqcTALfbTVFREYmJiT5atoh0B3aA4OBgnnjiCdauXYvL5WLixIkkJibyxz/+kZSUFNLS0igtLWXjxo1cvnyZI0eO8OGHH7J582YAKisr+frrrxk6dKjH5Fu2bKG6uhqApKQkFixY0MXbExF/FuR2u92mF3Gjrvwqxp49e1o8FxLpifRVDBHpURRAImKMAkhEjPHLchzy/emDlhJIFEDdzI3hoofs4s/0EkxEjFEAiYgxCiARMUYBJCLGKIBExBgFkIgYo7fhJWDc+Bkn0OecAp3XRekBHn30UesPQWxsLCtXrgSuf0v+tdde49KlSyQnJ7N48WKPekEit+JmwaLPOQU2r4vSA4SGhlqF6Zt77733+NGPfsTYsWN5++232bdvH1OmTOnE7YhIILGBZ1F6u91uFaVvLi4ujqSkpDaL0jfndrv597//bd0pTZgwocWcItKz+aQofX19PatWrSI4OJhp06aRnp7OpUuXiIiIIDg4GLhe9rWqqsrHyxeRQOaTBzI5OTk4HA4uXLjAiy++yIABA6xmhB3RlUXpbxQREdGlv15X0/7En/mkKH3T2Pj4eIYOHcrZs2cZPXo0tbW1NDY2EhwcTFVVVatzqih959H+pKMCsih9TU0N9fX1AFRXV3Py5En69+9PUFAQw4YN49ChQwDs37//lgvdi0j35nVR+i+//JK3334bm82Gy+XikUcesd49mzNnDq+99hoffPABgwYNYtKkSUY3KyL+RUXpu/nnSLQ/6SgVpReRHkUBJCLGKIBExBgFkIgYowASEWMUQCJijAJIRIxRAImIMQogETFGASQixqg+qoifuLHmdU+od60AEvETN4ZLT/iem16CiYgxXnfFOHv2LNu3b+fKlSvYbDamT59ORkYGANnZ2ZSUlFjVERctWsTAgQO7aGsi4u+87ooRGhrKU089xe23305VVRWrVq3ivvvuo1evXgDMnTvXo4WPiEgTO3h2xQCsrhjNAyguLg6gRVeM5jVEHA4Hffr0obq62gogEZHW2ODmXTG+TweL0tJSGhoarCADeP/993nmmWfYsWOHVbpVRAR8+C6Y0+nkjTfeYNGiRdhs159tZ2Vl0bdvXxoaGti2bRt79+5l5syZLa5VV4zOo/0Fru68tyY+6YpRW1vLunXr+NnPfsaQIUOs49HR0QCEhIQwceLEm3ZVBXXF6EzaX+Dq6r0FZFeMhoYGNm7cSGZmZouHzU6nE7jeJbWoqIjExEQfL19EApnXXTEKCgo4ceIEly5dYv/+/cB3b7dv2bKF6upqAJKSkliwYIGxjYqI/7GeAd1///3cf//9HicfffRR6//vvPNO3nrrrRYTZGZmkpmZedPJn3vuOV+tU0S6IX0SWkSMUQCJiDEKIBExRgEkIsYogETEGAWQiBijABIRYxRAImKMAkhEjFEAiYgxCiARMabbd8X46A87uFp5odXzZc5v+fB/TrZ6PiwunqlzH++ElYmI10XpAfbv309eXh4A06dPZ8KECQCcOXOG7Oxs6urqSE1NZd68eS1Kuna2q5UXeKDidNuDKipbPfWJj9cjIt+xwXdF6X/961/z6quvkp+fT1lZmcfApqL0N/YuqqmpYffu3bz88su8/PLL7N69m5qaGgC2b9/OwoUL2bJlCxUVFRQXF3fRtkQkENjAsyi93W63itI3FxcXR1JSUos7mOLiYu69914iIyOJjIzk3nvvpbi4GKfTyZUrVxgyZAhBQUFkZma2mFNEejavi9LfeK3D4aCqqspnhe5FpPvyi4fQnVmUPiQkxOvr/bUw+Bu/y+X819VtjnFeOM//XHy/1fN3xEax+P/93NdL6zLduXB7d95bE6+L0jscDkpKSqyfq6qqGDp06C3N2ZlF6b1tBVRfX++3Rc8/L7/If4cPbnvQDwZS1sbp+vLTfru/jlBRet8JyKL0I0eO5OjRo9TU1FBTU8PRo0cZOXIk0dHRhIeHc+rUKdxuNwcOHOjwnCLSM3hdlD4yMpIZM2awevVqAGbOnElkZCQA8+fPJycnh7q6OkaOHElqaqq5nUrA2f3/P6L626ttjrlQWUbV1x+2ej6qTxgzZ0319dLER7wuSg8wadIkJk2a1OJ4SkoKmzZt8tVapYep/vYqP4h7oM0xP4hre44vK/VJLn+mr2KIiDEKIBExRgEkIsYogETEGAWQiBijABIRYxRAImKMAkhEjFEAiYgxCiARMUYBJCLG+EU9oM5U5vyW/6p1fe/rK53f+nA1ItJctw+g/tF9eOBa60Xn2/NJdB8frkZEmutwV4z6+nq2bt3KmTNn6N27N8uWLSMuLo5PPvmEjz76yBp37tw51q9fz8CBA3n++edxOp2EhoYCsGbNGvr00V9oEbnODt91xVizZg0xMTGsXr2atLQ0+vfvbw3ct28fvXr14o033iA/P5+dO3eyfPlyHnjgAR544HrJhHPnzrFhwwYGDhxoXbdkyRJSUlK6dlciEhA63BXj8OHDVr+vMWPGcPz4cdxut8eYgwcPkpGR0TUrF5GAZ4ebd8U4fdqzmV/zMcHBwURERHDp0iWioqKsMYWFhTz77LMe1+Xk5GCz2Rg9ejQzZszo8saEErguVJbhvPhfXs1R1/j9n/9J5/PZQ+jTp08TGhrKgAEDrGNLlizB4XBw5coVNm3axIEDBxg/fnyLa9UV4/vxdm9Nc/jr/vr/YBBx0WPaH9iGSuchv91fe9QVo5mmMTExMTQ2NlJbW0vv3r2t8/n5+YwdO7bFNQDh4eGMGzeO0tLSmwaQumJ8P/X19V7/E+L3+/PBHP66v127drXZK+/ixYucOnWqzTkcDgdZWVk+WY+Jrhh28OyK4XA4KCgoYMmSJR4DR40axf79+xkyZAiHDh1i2LBh1sspl8tFYWEhL774ojW+sbGRy5cvExUVRUNDA0eOHGHEiBFduLXu79uvyglytd0XrN05bJd9tBq5VVVVVbhcrX9GLTo6us3zTXMEsg53xZg0aRJbt25l8eLFREZGsmzZMmuSEydOEBsbS3x8vHWsvr6etWvX0tjYiMvlYsSIER53OeK9Pv1up7y9vmDtzXHldPuDRDpJh7tihIaG8qtf/eqmkwwbNoy1a9d6HAsLC2P9+vW+XKuIdDP6LpiIGKMAEhFjFEAiYowCSESMUQCJiDEKIBExRgEkIsYogETEGAWQiBijABIRYxRAImKMAkhEjFEAiYgxXnfFqKysZPny5VYxo8GDB7NgwQIAzpw5Q3Z2NnV1daSmpjJv3jyVZBURi9ddMQASEhLYsGFDi8m3b9/OwoULGTx4ML/97W8pLi4mNTW1i7YmIv7ODp5dMQCrK0bzADp8+DCzZs0CrnfFePfdd1t0xWjO6XRy5coVhgwZAkBmZiZFRUUKIJH/c/HiRa5everVHGFhYT5ajRled8UAqKysZMWKFYSHhzN79mzuueeem84Z6OUjRXwpJiam3ZKr7bHZAvsxrtddMaKjo8nJyaF3796cOXOGDRs2sGnTpluaQ10xvp/u3hUjLr4vlVWH2hxTXvEFtycktjmHv+4vJCSEa9eueT2Hv+6vI7zuihEUFGT9RUhOTiY+Pp7y8vIOzdlEXTG+n+7eFePHP5nS7pg9e/a0eMPkRv66P3/r+hGQXTGqq6uJjIzEZrNx4cIFysvLiY+PJzIykvDwcE6dOsXgwYM5cOAAP/zhD7t8g2Fx8XzSxvky57f0j269X31YXHyr50xLiO4FzraLyn/7VTl9+t3e9hwihnjdFaOkpIQPP/yQ4OBgbDYbTz75JJGRkQDMnz+fnJwc6urqGDlypJEH0FPnPt7m+Y78C+qvHn90RrtjAnl/0v153RVjzJgxjBlz8+6VKSkpt/w8SER6jsB+hC4iAU0BJCLGKIBExBgFkIgYowASEWMUQCJijAJIRIxRAImIMQogETFGASQixiiARMQYBZCIGON1Ufpjx46xc+dOGhoasNvtzJ07l+HDhwPw/PPP43Q6CQ0NBWDNmjX06dN66QsR6Vm8Lkrfu3dvVq5cicPh4Ny5c6xdu5Zt27ZZ1y1ZsoSUlJSu35mI+D0beBalt9vtVlH65g4fPsyECROA6yU4jh8/jtvtZtCgQValw8TEROrq6nxS6U1Euj+vi9JHRUVZYz799FOSk5M9ahXn5ORgs9kYPXo0M2bMUF8wEbF4XZS+yRdffMHOnTv5zW9+Yx1bsmQJDoeDK1eusGnTJg4cOMD48eNbXNuZRenbExEREdBFvduj/fkvFaX3QVH6pvEbN25k0aJFJCQkeFwDEB4ezrhx4ygtLb1pAHVmUfr21NbW+m3Rcl/Q/vyXitL/3zOg5kXpGxoaKCgoIC0tzWNgU1F6wKMo/eXLl1m3bh1ZWVncfffd1vjGxkaqq6sBaGho4MiRIyQmtt4+RaSncTgc2Gy2Vv9zOp1tnrfZbK12mgkUXhel/+tf/0pFRQW7d+9m9+7dwPW322+77TbWrl1LY2MjLpeLESNGeNzliPR0WVlZbZ7vCQ0FvC5KP2PGDGbMuHl3hvXr1/tqnSLSDemT0CJijM/eBQsUBw8e9Hhod+7cOfbs2WP9HBsby7hx40wsTaTH6XEBpHAR8R89LoAkcN149wq6gw10CiAJGAqW7kcPoUXEGAWQiBijl2DdjN7lk0CiAOpmFC4SSPQSTESMUQCJiDEKIBExRgEkIsZ43RUD4E9/+hP79u3DZrMxb948Ro4c2aE5RaRn87orRllZGQUFBWzevBmn08lLL73E66+/DtDunCLynZ74EQo7eHbFAKyuGM3D4vDhw8yaNQu43hXj3Xffxe12U1RUREZGBiEhIcTFxZGQkEBpaSlAu3OKyHe6W7h0hA1u3hWjqqrKY2BrXTFuvNbhcFBVVdWhOUWkZ/OLDyKa7IohIuZ43RXjxmurqqqsa9ubs4nJrhgicl1AdsVIS0ujoKCA+vp6KisrKS8v58477+zQnCLSswW53W43wGeffUZubq7VFWP69OkeXTHq6urYunUr//nPf6yuGE0PmPPy8vj73/+OzWbj8ccfJzU1ldbm7Ijz58930nZFpDUm7oCsABIR6Wo9/pPQq1atMr2ETqX9Ba7uvLcmPT6ARMQcBZCIGNPjA6i7t4vW/gJXd95bEz2EFhFjevwdkIiY4xdfxehsixYtIiwsjKCgIPr27ctTTz1F3759Wz1+9epV/vCHP3Ds2DEiIiIAmDx5st/cEn/zzTfk5uZy+vRpevXqhd1uZ9q0afTq1YsXXniBhQsX8uCDDwJw9uxZVqxYwWOPPcbUqVPJzs6msLCQ7du3Ex4eDsCOHTv4y1/+wjvvvENUVJTJrbWqrT2/8sorxMXF0dDQQEZGhvWlaX/W2n7S09OB678nhYWFvPnmm9hs1+8T9u/fz5tvvskrr7xCUlISAE8//TQrV660SuMEmm4fQG63G5fLxXPPPUdUVBS7du0iLy+PJ554AuCmx9966y3i4uJ4/fXXsdlsVFdXs2/fPsM7uc7tdrNhwwbGjx/P0qVLAfjqq684fPgwvXr1IjExkcLCQiuADh48aP1hbZKQkEBRURGZmZm4XC6OHz/e6tdk/EF7e77nnntYtWoVV69eZcWKFYwaNYrk5GTDq25dW/uB6+Vx/vGPfxAbG0tJSQnDhw+3rnU4HOTl5bF8+XIja/e1bvkSrLKykqVLl7J161aefvppj++kDR06lAsXLrS4pul4RUUFpaWlzJ492/qXJyoqym+KqR0/fhy73c6UKVOsY/369ePhhx+2/r++vp5vvvkGt9vN0aNHrU+mN8nIyKCgoACAkpIS7rrrLoKDg7tuE7eovT03CQsLIzk5mYqKiq5e4i1pbz8lJSUkJiYyefJk8vPzPa4dNWoUZWVl3ebbAt0ygAAqKiqYMmUKmzdvpl+/ftbxI0eOkJiY2GJ80/GysjKSkpKs8PE3X3zxBYMGDWpzzOjRozl06BAnT55k0KBB2O2eN7p33HEHly5doqamhoMHDzJ27NjOXLLXOrJngEuXLnH69Omb/v76k/b20/R7kp6ezmeffUZDQ4N1LigoiKlTp5KXl9cVS+103fYlWGxsLEOGDLF+fuGFF7DZbCQlJTF79uxWj584ccJjnry8PAoLC6murmbbtm1dtv6Oeueddzh58iR2u53HHnsMuH6H8+qrr/Lll18yduxYTp482eK69PR0CgoKKC0tZcGCBV29bK/cuOcTJ06wYsUKgoKCmDZtmt8H0I2a7+ell17in//8Jz//+c8JDw9n8ODBHD16lFGjRlnjx40bR15eHpWVlQZX7RvdNoDCwsI8fm561nOjG4/379+fzz//HJfLhc1mY/r06UyfPp25c+d2+po7IjExkU8//dT6ef78+VRXV7N69WrrWN++fbHb7Rw7dox58+bdNIAyMjJYtWoV48eP99u7vSbt7bnpGVCgaGs/xcXF1NbW8swzzwBw7do1QkNDPQIoODiYn/zkJx7lWgOVf//JMyAhIYHk5GQ++OADXC4XAHV1dYZX9Z3hw4dTX1/P3/72N+vYzdb305/+lDlz5rQaLv369WP27NkezyH8VUf3HCja2k9+fj4LFy4kOzub7Oxstm7dyrFjx7h27ZrHHBMmTOBf//oX1dXVXbp2X+u2d0De+MUvfsF7773H4sWL6d27N6GhocyZM8f0soDrzwCeffZZcnNz2bt3L1FRUYSFhbVY31133dXuXJMnT+6sZfpUR/ccKFrbz6xZs8jNzeXJJ5+0xoaFhXH33Xdz5MgRjznsdjsPP/wwO3bs6OLV+5Y+CS0ixuglmIgYowASEWMUQCJijAJIRIxRAImIMQogETFGASQixiiARMQYBZCIGKMAEhFjFEAiYsz/AjFNewqjR3oaAAAAAElFTkSuQmCC;" vertex="1" parent="1">
          <mxGeometry x="160" y="110.4" width="173.33" height="130" as="geometry" />
        </mxCell>
        <mxCell id="r2PIuUKBtOEbJUY47sBG-6" value="&lt;span style=&quot;color: rgb(33 , 33 , 33) ; font-size: 14px ; font-style: normal ; font-weight: 400 ; letter-spacing: normal ; text-indent: 0px ; text-transform: none ; word-spacing: 0px ; background-color: rgb(255 , 255 , 255) ; display: inline ; float: none&quot;&gt;dychrotic_notch&lt;/span&gt;" style="text;whiteSpace=wrap;html=1;fontFamily=Times New Roman;" vertex="1" parent="1">
          <mxGeometry x="201.66000000000003" y="102" width="90" height="30" as="geometry" />
        </mxCell>
        <mxCell id="r2PIuUKBtOEbJUY47sBG-21" value="" style="shape=image;verticalLabelPosition=bottom;labelBackgroundColor=#ffffff;verticalAlign=top;aspect=fixed;imageAspect=0;image=data:image/png,iVBORw0KGgoAAAANSUhEUgAAASAAAADYCAYAAABLNT5AAAAABHNCSVQICAgIfAhkiAAAAAlwSFlzAAALEgAACxIB0t1+/AAAADh0RVh0U29mdHdhcmUAbWF0cGxvdGxpYiB2ZXJzaW9uMy4yLjIsIGh0dHA6Ly9tYXRwbG90bGliLm9yZy+WH4yJAAAVeElEQVR4nO3dfVBUZd8H8O8uKy3vssBC3qwohJVaSTLqIL6k6dQ0qQOahjlpY9pkkvaiWM70NpSGmhWgZi9yp1Y+PGQ10zRNtzHGi6UUmuFN8JgRBqyxm4sCssvu8wfD0WVZ2Nxlr335fv6Kc65zcf1G+3r27DnnJ7NYLBYQEQkgF70AIvJfDCAiEoYBRETCMICISBgGEBEJwwAiImEYQEQkDAOIiIRhABGRMAwgIhKGAUREwjCAiEgYBhARCcMAIiJhGEBEJAwDiIiEYQARkTAMICIShgFERMIwgIhIGAYQEQnDACIiYRhARCQMA4iIhGEAEZEwDCAiEkYhegH9+fPPP0UvgcjvjBgxwu2/k2dARCQMA4iIhGEAEZEwDCAiEoYBRETCeOS3YEOprKwMf/31l/RzQ0MDRo4cKf0cHR2N9PR0EUsj8jsyi8ViEb2Ivtz5Nfzhw4exYMECt/0+Ik/Fr+GJyK8wgIhIGAYQEQnDACIiYRhARCQMA4iIhJHuA6qursYHH3wAs9mM2bNn23w1XVNTg6KiIvz+++9Yt24dpkyZIu1bvHixdC9NdHQ0Nm7cCADQarXYuXMn2trakJiYiLVr10Kh8Ltbj4jIDgUAmM1mvPfee9i8eTOioqKwadMmpKamIj4+XhoYHR2Nxx9/HF988YXNJIGBgcjLy7PZvn//ftx3332YOnUq3nnnHRw5cgRz584dwnKIyJvIAaC+vh5xcXGIjY2FQqFAWloajh8/bjVQrVYjISEBMpnMoYktFgt++eUX6Uxp5syZNnMSkX9TAIBOp0NUVJS0MSoqCnV1dQ5PYjQakZOTg4CAAMyfPx+TJk1CW1sbgoODERAQAABQqVTQ6XQuXj71xUdNyJu45IJMYWEhVCoVWlpa8PLLL2PkyJEIDg52+PhvvvkG33zzDQBgy5YtiI6OdsWyHBIcHOzW3zfU+l67O3jwILKysgSthmhgCqDn7KS1tVXa2NraCpVK5fAkvWNjY2MxduxYnDt3DpMnT0Z7ezu6u7sREBAAnU5nd867774bd999t/Tztf+CD7X29na3/j538/X6yHWEPQuWlJSEpqYmaLVamEwmVFRUIDU11aEJLl26BKPRCAAwGAyora1FfHw8ZDIZxo0bh2PHjgEASktLHZ6TiPyDAgACAgLwyCOPIDc3F2azGXfddRc0Gg0++eQTJCUlITU1FfX19di2bRsuX76MqqoqHDp0CDt27MD58+fxzjvvQC6Xw2w2Y8GCBdK3Z0uXLsXOnTvx8ccfY/To0Zg1a5bQYonIs/B1HD7+Og5fr49ch6/jICK/wgAiImEYQEQkDAOIiIRhABGRMAwgIhKGAUREwjCAiEgYBhARCcMAIiJhGEBEJAwDiIiEYQARkTAMICISxum2POfOncPevXvR0dEBuVyOjIwMpKWlAQAKCgpQU1MjvZ51zZo1GDVqlJtKIyJP53RbnsDAQDzxxBO48cYbodPpkJOTgzvuuAMhISEAgGXLlln1ECMi6qUArNvyAJDa8lwbQGq1GgBs2vJc+xIjlUqFiIgIGAwGKYCIiOyRA/235bmeFjr19fUwmUxSkAHARx99hGeeeQb79u2T3h1NRAS4qC0PAOj1erz99ttYs2YN5PKea9tZWVkYPnw4TCYT9uzZg88++wwLFy60OZZteYaOr9dH3s0lbXna29uxZcsWPPjggxgzZoy0PTIyEgAwbNgw3HXXXf22dQbYlmco+Xp95Dpe2ZbHZDJh27ZtmD59us3FZr1eD6CnTfPx48eh0WhcvHwi8mZOt+WpqKjAmTNn0NbWhtLSUgBXv25/6623YDAYAAAJCQlYtWqVsELJ+/VtOw2w9bS3Y1seH29bw/rIUWzLQ0R+hQFERMIwgIhIGAYQEQnDACIiYRhARCSMyx7FICLn9L3PyR/ucWIAEXmIvuHiD/c48SMYEQnDACIiYRhARCQMA4iIhGEAEZEwDCAiEoYBRETCON0XDABKS0tRUlICAMjIyMDMmTMBAGfPnkVBQQG6urqQkpKCFStW2HTVICL/JQeu9gV77rnn8MYbb6C8vByNjY1WA3v7gvW9WerSpUsoLi7Gq6++ildffRXFxcW4dOkSAGDv3r1YvXo13nrrLTQ3N6O6utpNZRGRN5AD1n3BFAqF1BfsWmq1GgkJCTZnMNXV1bj99tsRGhqK0NBQ3H777aiuroZer0dHRwfGjBkDmUyG6dOn28xJRP7N6b5gfY9VqVTQ6XQu6zVGRL7LI54FY1+wocP6vJcv19bL6b5gKpUKNTU10s86nQ5jx479R3OyL9jQYX3ey921iXgpvQKw7gumUqlQUVGB7OxshyaYMGECPvroI+nC88mTJ5GVlYXQ0FAEBQXh119/RXJyMo4ePYp77rln6Cqx4/MP96FT22J3f6P+Ig79X63d/Up1LOYtWz4EKyMip/uChYaGIjMzE5s2bQIALFy4EKGhoQCAlStXorCwEF1dXZgwYQJSUlLcXmCntgXTmusGHtSstbvrOxevh4iukq4B3Xnnnbjzzjutdi5evFj675tuugm7d+/ud5JZs2Zh1qxZNtuTkpKwfft2V62ViHwM74QmImEYQEQkDAOIiIRhABGRMAwgIhLGI+6Epuuz75P/RbP+8oBjLl5own+b/213f1xkCJYvznT10ogcwgDyYs36y/hvUPLAg0Ymo2mg/fpB7pEiGkL8CEZEwjCAiEgYBhARCcMAIiJheBGaPFbx/3wOw8XOAce0aBuh++uQ3f3hEUosXDTP1UsjF2EAkccyXOzEv9TTBhzzL/XAc5zX8n0GnowfwYhIGIfb8hiNRuTn5+Ps2bMICwvDunXroFar8d133+Hzzz+XxjU0NGDr1q0YNWoUXnzxRej1egQGBgIANm/ejIiICDeVRkSeTgFcbcuzefNmREVFYdOmTUhNTUV8fLw08MiRIwgJCcHbb7+N8vJyHDhwAOvXr8e0adMwbVrPaXJDQwPy8vIwatQo6bjs7GwkJSW5tyoi8goOt+U5ceKE1HBwypQpOH36NCwWi9WYsrIypKWluWflROT1HG7Lc+2YgIAABAcHo62tzWpMZWUlpk6darWtsLAQzz77LIqLi20Ci4j8m8u+Baurq0NgYCBGjhwpbcvOzoZKpUJHRwe2b9+Oo0ePYsaMGTbHDmVbnmHDhjl9vKe2RnG2tt45WJ9nYluea/SOiYqKQnd3N9rb2xEWFibtLy8vtzn76Z0jKCgI6enpqK+v7zeAhrItj9FodPp4T237YjQanf4nxOPrc8EcnlrfYPyhLY8csG7LYzKZUFFRgdTUVKuBEydORGlpKQDg2LFjGDdunNSm2Ww223z86u7uhsFgAACYTCZUVVVBo9G4oyYi8hIOt+WZNWsW8vPzsXbtWoSGhmLdunXSJGfOnEF0dDRiY2OlbUajEbm5ueju7obZbMZtt91mdZZDRORwW57AwEA89dRT/U4ybtw45ObmWm1TKpXYunWrK9d6XRr1F/GfdvN1H6/VX3ThaojoWj7/KEZ8ZASmXbHfeHAw30XyxkmiocJHMYhIGAYQEQnDACIiYRhARCQMA4iIhPH5b8F82cULTZCZDc7NIR+4r5hILdpG6Fv/49QcXd3X/w0oDT0GkBeLiLkRTYP1BRtsjg7P7QsWq44f9I2Ig/HkNyIePHjQ5qHva7W2tqKxsXHAOVQqFbKysly9NLdhABEJotPpYDbbv0k2MjJywP29c3gzXgMiImEYQEQkDAOIiIRhABGRMAwgIhLG6bY8Wq0W69evl96mlpycjFWrVgEAzp49i4KCAnR1dSElJQUrVqyQXmJGROR0Wx4AiIuLQ15ens3ke/fuxerVq5GcnIzXXnsN1dXVSElJcVNpROTpXNqW51p6vR4dHR0YM2YMZDIZpk+fbjMnEfk3BdB/W566Ous7ZAdqy6PVarFhwwYEBQVhyZIluPXWWx1q9UNE/s3pO6EjIyNRWFiIsLAwnD17Fnl5edi+ffs/moNtea6Pr7et8Yf6rly54vQcnlqfI5xuyyOTyaS/KImJiYiNjUVTU5NDc/ZiW57rw7Y8js3B+hzjlW15DAaD9LxKS0sLmpqaEBsbi8jISAQFBeHXX3+FxWLB0aNHbeYkIv/mdFuempoaHDp0CAEBAZDL5Xj00UcRGhoKAFi5ciUKCwvR1dWFCRMm8BswIrLidFueKVOmYMqUKf1OnpSU9I+vBxH5i9bWVnR2djo1h1KpdNFqxODrOIgEiYqKGvR1G4ORy737YQbvXj0ReTWfPwNSqmMx0DvxGvUXET9A80GlOtbuPiJyjs8H0Lxlywfcf/jwYZvn3ojIPfgRjIiE8fkzIF8WFxkC6Ad+qfzFC02IiLlx4DmIBGEAebHlizMHHcOPmOTJGEDkscIjlIO21WnRNiJWHW93f3iEd98n4+sYQOSxFi6aN+gYnuF5N16EJiJhGEBEJAwDiIiEYQARkTAMICIShgFERMI43Rfs1KlTOHDgAEwmExQKBZYtW4bx48cDAF588UXo9XoEBgYCADZv3oyICPsPfhKRf3G6L1hYWBg2btwIlUqFhoYG5ObmYs+ePdJx2dnZSEpKcn9lROTxnO4LNnr0aOll8xqNBl1dXS552TYR+T6n+4KFh4dLY77//nskJiZatVMpLCyEXC7H5MmTkZmZydbMRCRx2aMYf/zxBw4cOIDnn39e2padnQ2VSoWOjg5s374dR48exYwZM2yOHcq+YIMJDg726r5Kg2F9nmvEiBG4cOGC3f0XLlxATEzMgHPExMR4bf2AC/qC9Y7ftm0b1qxZg7i4OKtjACAoKAjp6emor6/vN4CGsi/YYNrb2z22b5QrsD7PlZGRMeB+R59z8+u+YJcvX8aWLVuQlZWFW265RRrf3d0Ng8EAADCZTKiqqoJGo3FTWUTkDZzuC/bVV1+hubkZxcXFKC4uBtDzdfsNN9yA3NxcdHd3w2w247bbbrM6yyEicrovWGZmJjIz+38x1tatW121TiLyQX73PqCysjKrz8wNDQ04fPiw9HN0dDTS09NFLI3I7/hdADFciDyH3wUQea++Z68Az2C9HQPIx/jyR0xvXTfZxwDyMfyflLwJX8dBRMIwgIhIGAYQEQnDACIiYRhARCQMA4iIhGEAEZEwDCAiEoYBRETCON2WBwA+/fRTHDlyBHK5HCtWrMCECRMcmpOI/JvTbXkaGxtRUVGBHTt2QK/X45VXXsGbb74JAIPOSURX+fJzfPYoAOu2PACktjzXhsWJEyewaNEiAD1ted5//31YLBYcP34caWlpGDZsGNRqNeLi4lBfXw8Ag85JRFf5Wrg4Qg7035ZHp9NZDbTXlqfvsSqVCjqdzqE5ici/ecTT8CLb8hCROE635el7rE6nk44dbM5eItvyEFEPr2zLk5qaioqKChiNRmi1WjQ1NeGmm25yaE4i8m8yi8ViAYAff/wRRUVFUluejIwMq7Y8XV1dyM/Px2+//Sa15em9wFxSUoJvv/0Wcrkcy5cvR0pKCuzN6Yg///xziMolIntEnAFJAURE5G5+fyd0Tk6O6CUMKdbnvXy5tl5+H0BEJA4DiIiE8fsA8vV+9azPe/lybb14EZqIhPH7MyAiEscjHsUYamvWrIFSqYRMJsPw4cPxxBNPYPjw4Xa3d3Z24sMPP8SpU6cQHBwMAJgzZ47HnBL//fffKCoqQl1dHUJCQqBQKDB//nyEhITgpZdewurVqzF79mwAwLlz57BhwwY89NBDmDdvHgoKClBZWYm9e/ciKCgIALBv3z58+eWXePfddxEeHi6yNLsGqvn111+HWq2GyWRCWlqa9NC0J7NXz6RJkwD0/JlUVlZi165dkMt7zhNKS0uxa9cuvP7660hISAAAPP3009i4caP0ahxv4/MBZLFYYDab8cILLyA8PBwHDx5ESUkJHnnkEQDod/vu3buhVqvx5ptvQi6Xw2Aw4MiRI4Ir6WGxWJCXl4cZM2bgySefBABcuHABJ06cQEhICDQaDSorK6UAKisrk/6y9oqLi8Px48cxffp0mM1mnD592u5jMp5gsJpvvfVW5OTkoLOzExs2bMDEiRORmJgoeNX2DVQP0PN6nB9++AHR0dGoqanB+PHjpWNVKhVKSkqwfv16IWt3NZ/8CKbVavHkk08iPz8fTz/9tNUzaWPHjkVLS4vNMb3bm5ubUV9fjyVLlkj/8oSHh3vMy9ROnz4NhUKBuXPnSttiYmJw7733Sv9tNBrx999/w2Kx4OTJk9Kd6b3S0tJQUVEBAKipqcHNN9+MgIAA9xXxDw1Wcy+lUonExEQ0Nze7e4n/yGD11NTUQKPRYM6cOSgvL7c6duLEiWhsbPSZpwV8MoAAoLm5GXPnzsWOHTsQExMjba+qqoJGo7EZ37u9sbERCQkJUvh4mj/++AOjR48ecMzkyZNx7Ngx1NbWYvTo0VAorE90R4wYgba2Nly6dAllZWWYOnXqUC7ZaY7UDABtbW2oq6vr98/XkwxWT++fyaRJk/Djjz/CZDJJ+2QyGebNm4eSkhJ3LHXI+exHsOjoaIwZM0b6+aWXXoJcLkdCQgKWLFlid/uZM2es5ikpKUFlZSUMBgP27NnjtvU76t1330VtbS0UCgUeeughAD1nOG+88QbOnz+PqVOnora21ua4SZMmoaKiAvX19Vi1apW7l+2UvjWfOXMGGzZsgEwmw/z58z0+gPq6tp5XXnkFP/30Ex5++GEEBQUhOTkZJ0+exMSJE6Xx6enpKCkpgVarFbhq1/DZAFIqlVY/917r6avv9vj4ePz+++8wm82Qy+XIyMhARkYGli1bNuRrdoRGo8H3338v/bxy5UoYDAZs2rRJ2jZ8+HAoFAqcOnUKK1as6DeA0tLSkJOTgxkzZnjs2V6vwWruvQbkLQaqp7q6Gu3t7XjmmWcAAFeuXEFgYKBVAAUEBOD++++3el2rt/Lsv3kCxMXFITExER9//DHMZjMAoKurS/Cqrho/fjyMRiO+/vpraVt/63vggQewdOlSu+ESExODJUuWWF2H8FSO1uwtBqqnvLwcq1evRkFBAQoKCpCfn49Tp07hypUrVnPMnDkTP//8MwwGg1vX7mo+ewbkjMceewz79+/H2rVrERYWhsDAQCxdulT0sgD0XAN49tlnUVRUhM8++wzh4eFQKpU267v55psHnWvOnDlDtUyXcrRmb2GvnkWLFqGoqAiPPvqoNFapVOKWW25BVVWV1RwKhQL33nsv9u3b5+bVuxbvhCYiYfgRjIiEYQARkTAMICIShgFERMIwgIhIGAYQEQnDACIiYRhARCQMA4iIhGEAEZEwDCAiEub/AXYuusFpi3McAAAAAElFTkSuQmCC;" vertex="1" parent="1">
          <mxGeometry x="320" y="110" width="173.34" height="130" as="geometry" />
        </mxCell>
        <mxCell id="r2PIuUKBtOEbJUY47sBG-8" value="&lt;span style=&quot;color: rgb(33 , 33 , 33) ; font-size: 14px ; font-style: normal ; font-weight: 400 ; letter-spacing: normal ; text-indent: 0px ; text-transform: none ; word-spacing: 0px ; background-color: rgb(255 , 255 , 255) ; display: inline ; float: none&quot;&gt;diastolic_peak&lt;/span&gt;" style="text;whiteSpace=wrap;html=1;fontFamily=Times New Roman;" vertex="1" parent="1">
          <mxGeometry x="369" y="102" width="90" height="30" as="geometry" />
        </mxCell>
        <mxCell id="r2PIuUKBtOEbJUY47sBG-22" value="" style="shape=image;verticalLabelPosition=bottom;labelBackgroundColor=#ffffff;verticalAlign=top;aspect=fixed;imageAspect=0;image=data:image/png,iVBORw0KGgoAAAANSUhEUgAAAQYAAAC+CAYAAADX26GQAAAAAXNSR0IArs4c6QAAFkhJREFUeF7tnXlslcX6xx+KlQrYUqhlsUUjYoxREgMxaApCUIP/YNXL/SkRheJlE1BAqbRcFpFLIVCXK4hBlv4wJiwXFVxYXAgXFQkxyqJX2YTLRaiVsggtUOXmmXDOLac9Z+Z9z5w578z5noRo2+edd57v88znPDPvMk0uXrx4kfCBAlAACtRToAnAgHyAAlAgUgGAATkBBaBAAwUABiQFFIACAANyAApAAbkCqBjkGsECCqScAsbAcOTIkZQTFw5DgWQr0KFDB19dABh8yYaDoIAdCgAMdsQp7l6eOHGCFixYQCNGjKCsrKy420MDbisAMLgd37B3y5Yto02bNlGvXr1o4MCBKeI13PSrgDYwfPPNN7RkyRL6448/qE+fPlRYWHhZnzgpOTlbt24tft+3b19hJ/tgjUGmkPzvXC0UFxfThQsXKD09nWbPno2qQS5bSltoAQPD4Omnn6ZJkyZRmzZtaOLEieLnvLy8sLgMhn379tGQIUM8CQ4weJKrUWMG8ubNm+n333+npk2bUs+ePVE1xC+r0y1oAcOPP/5IK1eupNLSUiHWO++8I/774IMPAgwBSJ+RI0dSbW1tuCcZGRk0f/78APQMXQiqAlrAsHXrVuKpxPDhw4Wf/O20Z8+ey6oDrhjefvttyszMpPbt29MTTzxBOTk5Ul1QMUglkhqgYpBKBIMIBYyB4fTp08TfVDzH3bhxI33xxRc0ZcqUBgH5+OOPif/xp6ysjM6fP4+gxanA8ePHaejQoULLK6+8khYuXEjZ2dlxtorDXVaA88TP57L7GFSmEvVPwmsSgwcPpoqKCum5TVUMrl/Ow1UJaarBoJ4CWioGXtTixcbJkyeLqw68+DhmzBjKz88Pn6q6ujr8LbVt2zZ67733aMaMGdJgmAKD6wPHdfBJEwkGnhTQAgY+49dffy0qAK4GevfuTQ899BAtX76cOnXqRN26dRPrC9u3bxer4i1btqQnn3ySrr32WmlnTYABl/OkYYBBiimgDQyJ0s0EGLA4l6jooV1bFQAYiAiX82xNX/Q7UQoADETijkzcAJSoFEO7NioAMBAR1hhsTF30OZEKAAyX1HX9qkQikwhtu6cAwHAppric515ywyP/CgAM/rXDkVDAWQUABmdDC8eggH8FAAb/2uFIKOCsAgCDs6GFY1DAvwIpDYYtW7ZQVVVVWL1Dhw5Rx44dwz/zY+EFBQX+1cWRUMBSBVIaDJExe/fddxu8ks7SuKLbUCAuBQCGevIBDHHlEg52SAGAAWBwKJ3hii4FAAaAQVcuoR2HFAAYAAaH0hmu6FIAYAAYdOUS2nFIAYABYHAoneGKLgUABoBBVy6hHYcUABgABofSGa7oUgBgABh05RLacUgBgAFgcCid4YouBbSBQbbbdajDvJ1deXk5zZw5U7xaXvYx8ZboUB9w56MsGvh7qiigBQwqu12zoDU1NWLbubq6OioqKgIYUiXL4Kd1CmgBg+oWdUuXLqUuXbrQmjVrxDbsqBisyxd0OEUU0AIGld2u9+/fT6tXr6Znn32Wpk6dCjCkSILBTTsVMAIGnmq88MILYmOX3NzcmGBI5m7XvI3egAED7Iwkeg0FNCpgZLfrs2fP0ujRoykjI0N0nd/IzPtXTpgwQTqdwOKjxmijKSigqICWikFlt+v6/cFUQjE6MIMCSVJACxi477LdrgGGJEUYp4UCPhTQBgYf51Y6BFMJJZlgBAW0KgAw1JMTNzhpzS00ZrECAAPAYHH6ouuJUgBgABgSlVtG28Xeo3rlBhgABr0ZlaTWsFu5XuEBBoBBb0YloTWuFoqLi+nChQuUnp5Os2fPpqysrCT0xJ1TAgwAg/XZzNXC5s2bie+nadq0KfXs2VPcco+PfwUABoDBf/YE5Ei+1b62tjbcG77Ddv78+QHpnZ3dABgABjszt16vUTHoDyHAADDozyrDLWKNQb/gAAPAoD+rktAirkroFR1gABj0ZlSSWsN9DHqFBxgABr0ZhdacUABgABicSGQ4oVcBgAFg0JtRaM0JBQAGgMGJRIYTehUAGAAGvRmF1pxQAGAAGJxIZDihVwGAAWDQm1FozQkFAAaHwbBlyxaqqqoKe3jo0CHq2LFj+OecnBwqKChwIpHhhF4FAAaHwRCZKnh1nd7B43JrAAPA4HJ+wzefCmgDg2y36w0bNtD69espLS1NbDwzbNgwysvLk3Ybb4mWSqRsgIpBWaqUN9QCBpXdrnk3qubNmwvBt2/fLiBRWloqDQDAIJVI2QBgUJYq5Q21gEF1t+uQ2rwoxm/cKSkpkQYAYJBKpGwAMChLlfKGWsCgsts1K71u3Tr64IMPqK6ujiZPnkzt27eXBgBgkEqkbAAwKEuV8oZGwVC/YuA1iVGjRjUIAHa7TlxOYjfvxGnrWstGdruOFI3XJAYPHkwVFRVSPVExSCVSNkDFoCxVyhtqqRhUdrv++eefw1MHXnxctWoVlZWVSQMAMEglUjYAGJSlSnlDLWBgFWW7XS9ZsoR27twpXu/dsmVLKioqovz8fGkAAAapRMoGAIOyVClvqA0MiVISYNCnLMCgT0vXWwIY6kXY9YHjkn+Rz4FwGF16FiTZz7kADACDM19+LoEvMiimfQMYAAaAwQIFAIaIIGGNQV/Wmk4ufT1Xa8ll/0z7hooBFYPaqLPAyvTgMSmJad8ABoDBZH4n9FymB09CnYlo3LRvAAPAYDK/E3ou04Mnoc4ADLHlxRqDvvRzeeCwSi77Z9o3VAyoGPSRJ8ktmR48Jt017RvAADCYzO+Ensv04EmoM5hKYCphKsFcHjiYSujNopSqGNYsW0q1lceiKni4+iTlZWdF/XtGblvqN3CQ3ggYbA1gMCi25lOZjl1KgWHF3FnU4+ge3yH7Z7vO9Ofxxb6PT/aBppPLtL8u+2faN4DBQ/YCDB7ESoKp6cFj0kXTvgEMHqILMHgQKwmmpgePSRdN+wYweIhukMGwdPk/6Gj1mZjenPzlZ8q6JvoLeNtlt6BB//ewB0WCZWp68Jj03rRvAIOH6AYZDGUL/p/+dVVnD940NL25Zg89P/zxuNpI5sGmB49JX037BjB4iC7A4EGsJJiaHjwmXTTtG8DgIboAgwexkmBqevCYdNG0bwCDh+gCDB7ESoKp6cFj0kXTvmkDg2xT2/fff58++eQT8ZbozMxMGjFiBF1zzTVSbXU+ROXyfQxYY8BDVNLB5MFACxhUNrXdtWsXde7cmZo1a0a88/Xu3btp7Nix0q4CDFKJhAHAADCoZYqalRYweN3U9sCBA7R48WKaPn26tJcAg1QigOGSRKbLbbXI6LEy7ZsWMKhuahuSaNGiRdSqVSt6+GH5NXOAQS2xUDGgYlDLFDUr42DYvHkzrV+/nqZOnUrp6ekNepnITW0XTi6h7v/+Tk2ZRqy25t9Cf3nhb76PT+SBE2f9nXZecX1cp7it7ieaWTw6rjaSebDLm/aa9s3oprY7duwg3qqOoZCVFf0pxvrJhYpBbaihYkDFoJYpalZaKgaVTW15XaG8vJxKSkrCm9uqdBFgUFEJi4+skul5uFpk9FiZ9k0LGNh12aa2vNDIW4jx2gJ/cnJyqLhY/ggzwKCWWK5XDKtWrqFTJ2tjinGs8jC1zc2LapOZlUF/6t9PTdCAWVkLhkTpCDCoKes6GBa/uYKuze2hJkYUq/9U/pOKnvxzXG0k62CAIUJ5gEEtFQEGuU4Ag1yjkIW2qYT6Kb1ZAgxqegEMcp0ABrlGAIO6RmFLPCvhQzRNh2Aq8S4VFhZqUlPeTEpVDOWTSii3+qhclSgWldntaNyLwbyPARWDPKyoGOQaoWJQ1wgVgw+tdB+CigEVw2U5hTUGtSGGikGuEyoGuUaoGNQ1QsXgQyvdh6BiQMWAisHHqELFIBcNFYNcI1QM6hpZUTFMnD6Ljv7RwodX/zukXdoZmvlX+d2ocZ3E58GoGFAxoGLwMXhQMchFQ8Ug1wgVg7pGVlQMAIM8oACDXCOAQV0jgMGHVroPwVQCUwlMJXyMKtcrhpl/K6crm+b6UOZ/h5z/vZImloyLq41EHcwvYjl+/HjU5n/99Vdq06ZNzNO3bt2aBgwYoKWLKXXnI94SHTtngrwTlesVw2uvvUb8UuV4PmlpaTRq1Kh4mggfCzB4kBHPSngQS7MpwCAXFGCQa9SoBSoGVAxBfR8DKgaPgxq3RKsJ5voaAyoGeR6gYpBrhIrBh0ZYY/AhmqZDUDF4FBIVg5pgqBjkOgX5PgaAQR6/yywABjXBAAa5TgCDXKOQBa5KqGtFuCrhQSzNplhjkAsayDUG2W7X3333HVVUVNDBgwfpmWeeoe7du8s9JSJUDEoyOb+pLcAgz4PAgUFlt+vKykqqqamhtWvXUrdu3QAGeZw9WWAqIZcLUwm5RlqnEl52u543bx517do1KWBYs2wp1VYei6rO4eqTlJcdfeu8jNy21G/gIHV1DVoCDHKxgwyGadOmUW1t7A11ZB5mZGTQlClTZGZKf9eyxuBlt+tkgkGmiOlNPWT98fJ3gEGuVpDB4ORVCZ1gSORu17LUMb2jsKw/Xv7+90UVdKTqVMxDqo8doey2HaLadMjJpNFDnvByWmO2L81dSLnZautS0TpVWb2Vxo7/i7E+eznRjBkz6Ny5c14OaWDbrFkzKi0tjauN0MFGd7vmk6Ji0BI3X43YXBFh8VEe8sAtPqrsdh1yC2CQBzhRFgBDcPeudHIqwYks2+167969NGfOHDpz5gylp6eLXa/Ly8ulY0Dn5UrZyWweODLf+O82+4eKQR7hwFUM8i77twAY/GsXeSTAgIpBNZu0XJVQPZkfO4DBj2qNH2MzGFatXEOnTsa+nHes8jC1zc2LKlhmVgb9qX8/fYJqbMnZqYRGjS5rCmDQp6zNYFBRwWb/AAaVCNezARg8ChbD3OaBo6KCzf4BDCoRBhg8qqRmbvPAUfHQZv8ABpUIAwweVVIzt3ngqHhos38Ag0qEAQaPKqmZ2zxwVDy02T+AQSXCAINHldTMbR44Kh7a7B/AoBJhgMGjSmrmNg8cFQ9t9g9gUIkwwOBRJTVzmweOioc2+wcwqEQYYPCokpq5zQNHxUOb/QMYVCIMMHhUSc3c5oGj4qHN/mHvSpUIAwweVVIzt3ngqHjosn+mfUvpZyW2bNlCVVVV4Zw7dOgQdezYMfxzTk4OFRQUqOSkFTamk8u0KC77Z9q3lAaD6cRN9vlMJ5dpf132z7RvAIPp7E3i+Uwnl2lXXfbPtG8Ag+nsTeL5TCeXaVdd9s+0bwCD6exN4vlMJ1ciXY1cH+JzubxGZDp2AEMiszdgbZtOroC5b3V3TMcOYLA6XWJ3PtWuujgcSuPv6wQYXM4m+OaMAqgYIkJp8g1OzmQRHHFOAWvBINvt+sKFC8T3g+/fv5+uvvpqseN1bm6uNIAAg1QiGKSAAlaCQWW36/Xr19PBgwdp6NCh9Pnnn9O2bdto7Nix0pACDFKJYJACClgJBpXdrnlvvv79+9NNN91EvHMVA+LNN9+kJk2axAwrwJACWQ8XGyiQ7IVjLYuPKpvajh8/nkpKSqhNmzZChNGjRxPDIjMzE2DAwIACAVMgcGBI5m7XAYsNugMFkqaAsd2uMZVIWoxxYijgWQEtFYPKbtfr1q0Tt6yGFh+/+uorGjdunLTDWGOQSgQDKKBdAS1g4F7Jdrs+f/68uFx54MABatmypbhc2bZtW6lDAINUIhhAAe0KaAOD9p5dahBgSJSyaBcKRFcg8GBA8KAAFLBHgSYXL168aE931Xr6/PPPU1lZmZqxhVbwz8KgXeqyLbEDGCzMMVuSy6+0Lvtni28Ag9/sTeJxtiSXX4lc9s8W35wEA99cdc899/jNy8AfB/8CH6KoHbQldk6Cwd60Qc+hQDAUABiCEQf0AgoESgFrwfDUU09RRkaGeKqzVatWNGrUKPHfaL+vra2lZcuW0Y4dO6h58+YiCPfee29gphwnTpygiooK2rNnD7Vo0YKuuOIKeuCBB8T/T5s2jYYNG0Z9+vQR/f7pp59owoQJ9Nhjj1G/fv1o3rx59OWXX9LChQvpqquuEjZLly6lDz/8UDz5KnvALVkZGcvn2bNni/d81NXV0V133SWe6A36J5o/d9xxRzgmHKfXX3+d0tLSxO82bdokfmZ/r7vuOvE7flCxuLhY6T0nidLESjDwFdaRI0fSrFmzRNLzfoE88IuKigQYZs6c2eD3L7/8shD6kUceEUE5deoUffrpp1RYWJgobZXbZX8mTZpEd999N913333iuF9++YW2b98udtRavHgxZWdnCxv+vPXWW/Ttt99Sjx49wmDgO1EZEj179iR+rwaD47fffhMJF0QwyHxeu3Yt8UIdx5V94Ttsb7jhBmVNTRvG8uf+++8XMeEvL47jo48+SrfeemsYDMuXLxevMQi91wRg8BC9yspK8Xh3586dxdujDh8+HP425LdOffTRRzRx4sTLwBD6/eDBg+nFF1+kV199NUxqD6dOuOnOnTtp1apVojKI/OzevZt4kNTU1IjEycrKEgPl9ttvF7ekhyqG9u3bE79PgwfTrl27RAXB/ocgmXAnPJ5AxWf2hT8Mdf7W5cohqJ9Y/nCfOSYcxzvvvJN++OEHUQGGKoa9e/fS999/LyoFvlMRYPAQZQYDv/th+vTpgq71K4NFixZRs2bNRGnd2O9vvvlm+uyzz+i5557zcEZzplzys3+DBg2KCoYuXboIqF1//fWi0uH9OHkqFQJD165dReIxHLmi4MqBpxhBBYOKzwyG06dPC9jxv/z8fHNB8XimWP5wUwsWLKBbbrmFunXrJgDPseHpIk8l9u3bRzfeeCMxXLiqABg8iM8Dh79RWVD+hNYSeLDw3IyrAp6PN/Z7pnF9MKxevVp8o/J04o033vDQi8SYRiYVrwvwtwonDsOOB/zw4cPppZdeElMLTi7+eyQYjh07JtYYNmzYIKYQDFJbwBDpM/efH87jNSReWwlNsRITgfhbjRVD/jLjvOTKh+MzZ84c6t27NzHMQ2DgLwV+Srm0tFRMkbHGoBgTBgMLNnfu3DAYGkv6+hVDqOmjR482OpUYOHCgWJBM9qexMpShxd/+vJYSmm9zgvGu3gwInnpEgqFTp07im5XXKh5//PHLqqdk+xh5flWfg9bvaP2J5Q9/ab3yyivhtZ5z584RV4BjxowJg2HIkCHE9zjwNJmhDzAoRj4eMPApysvLqV27duHFR358nIMRBDDwwhV/U/Tq1Sv8zcgAmDJlymVg4IQ5efKkmG+vWLGiARi6d+9OGzdupNtuu0342hgkFeVOuJmqzwnviKYTxPKHp75cHRQUFIiz8YIqTxlCV5N4KsG5yFdgeJrBf+f1NJW3r2vqfoNmrLkqES8Yzp49G17N59fe8yuveDGrb9++idLWU7vV1dXhy5V8FYGrAb6cyouNoYqhfoPRwFDfJshg4H569dmToEkwbswfrt74MjRDIHSZnLvG0wnOP/6CCoGBf89TEr7UzO88ARiSEEScEgpAgegKWFMxIIhQAAqYUwBgMKc1zgQFrFEAYLAmVOgoFDCnAMBgTmucCQpYowDAYE2o0FEoYE4BgMGc1jgTFLBGgf8CxrSG1d4VD5AAAAAASUVORK5CYII=;" vertex="1" parent="1">
          <mxGeometry x="480" y="122.2" width="161.02" height="116.8" as="geometry" />
        </mxCell>
        <mxCell id="r2PIuUKBtOEbJUY47sBG-10" value="&lt;span style=&quot;color: rgb(33 , 33 , 33) ; font-family: monospace ; font-size: 14px ; background-color: rgb(255 , 255 , 255)&quot;&gt;A2_area&lt;/span&gt;" style="text;whiteSpace=wrap;html=1;fontFamily=Times New Roman;" vertex="1" parent="1">
          <mxGeometry x="533" y="102" width="90" height="30" as="geometry" />
        </mxCell>
        <mxCell id="r2PIuUKBtOEbJUY47sBG-23" value="" style="shape=image;verticalLabelPosition=bottom;labelBackgroundColor=#ffffff;verticalAlign=top;aspect=fixed;imageAspect=0;image=data:image/png,iVBORw0KGgoAAAANSUhEUgAAAQwAAADUCAYAAABplh1lAAAAAXNSR0IArs4c6QAAGINJREFUeF7tnXtQldW7xx8wkfKCgqF2AEukaZqyG9OUkclQTv2RAf3sFKNNye9XaEhppQWE5iXQFKuTeUsRdZghOtKYU2lUDj8qahqGTE9HKC2Pp9TIW+UFtX3mWae9f6Cw36X7ea/7u2ecAp693rU+z7M/e6317v2+ET6fz0d4gAAIgIAGgQgIQ4MSQkAABBQBCAOFAAIgoE0AwtBGhUAQAAEIAzUAAiCgTQDC0EaFQBAAAQgDNQACIKBNAMLQRoVAEAABCAM1AAIgoE0AwtBGhUAQAAEIAzUAAiCgTQDC0EaFQBAAAQgDNQACIKBNAMLQRoVAEAABCAM1AAIgoE0AwtBGhUAQAAEIAzUAAiCgTQDC0EaFQBAAAQgDNQACIKBNAMLQRoVAEAABCAM1AAIgoE0AwtBGhUAQAAEIAzUAAiCgTQDC0EaFQBAAAQgDNQACIKBNwFJh/PTTT9odQyAIgIAMgcsuu0ymIavvSwJhiOUNDYGANgEIQxsVAkEABCAM1AAIgIA2AQhDGxUCQQAEIAzUAAiAgDYBCEMbFQLdQKChoYHa2to6dXXPnj2UlJQU+N3AgQMpLS3NDcNxXB8hDMelBB2SJvDOO+9QZmamdLNh2R6EEZZpD69BQxhy+YYw5FiiJYcSgDDkEgNhyLFESw4lAGHIJQbCkGOJlhxKAMKQSwyEIccSLTmUAIQhlxgIQ44lWnIoAQhDLjEQhhxLtORQAhCGXGIgDDmWaMmhBCAMucSYLozm5maqqKigP//8kzIyMs75AA1/Km/JkiX0xx9/qJicnBy68cYbDUeIr7cbIkLAXwQgDLlSMFUYLIAnn3ySiouLKS4ujp5//nn1c0JCQmAEy5cvpyuuuILGjBlDe/fupdLSUiUQoweEYUQIf/cTgDDkasFUYbS0tFBNTQ0VFRWpHtfW1qr/ZmVlBUawYsUKio+PVzMPjl+7di3NnTvXcIQQhiEiBGCGIV4DpgqjsbGReEmSl5enOl5fX0+tra2Um5sbGMihQ4eUIHhJcvLkSXrhhRdo2LBhhgOFMAwRIQDCEK8B24WxadMm8vl8dO+996oZxtKlS2nRokUUGRnZabB1dXXE//hRVlZG7e3t4jDQoDcJVFVVqb0xPEInEBUVFXojf7VwzkWAdZYk06ZNo8LCQuKvHPMjPz+f5s2bRzExMUE7hhmGWN483xD2MORSbOoM48yZM2qTs6SkhGJjY9WmZ0FBASUmJgZG8NJLL9HIkSNp9OjRatNzzpw5tGzZMoqIiIAw5PIc1i1BGHLpN1UY3M2mpiaqrKxUp0zT09MpOzubqqurKTk5mVJTU5Uk+EzJiRMn1KjGjx9P1113neEIMcMwRIQA7GGI14DpwhDv8V8NQhhmkfVeu5hhyOUUwpBjiZYcSgDCkEsMhCHHEi05lACEIZcYCEOOJVpyKAEIQy4xEIYcS7TkUAIQhlxiIAw5lmjJoQQgDLnEQBhyLNGSQwlAGHKJgTDkWKIlhxKAMOQSA2HIsURLDiUAYcglBsKQY4mWHEoAwpBLDIQhxxItOZQAhCGXGAhDjiVacigBCEMuMRCGHEu05FACEIZcYiAMOZZoyaEEIAy5xEAYcizRkkMJQBhyiYEw5FiiJYcSgDDkEgNhyLFESw4lAGHIJQbCkGPpypYOHz6sLok4adIkw+uounKARARhyGUOwpBj6cqW1q1bR1u3blXXVJ0wYYIrx2DUaQjDiJD+3yEMfVaei+TZxYwZM+jUqVPUs2dPWrBggSdnGRCGXOlCGHIsXdcSzy745lJ8dfcePXrQqFGjPDnLgDDkShPCkGPpupYmT54cuFo7dz46OpreeOMN143DqMMQhhEh/b9DGAasvLwpiBmG/gsFkf9PAMIwqAQvbwpiDwMaOF8CEEYQYuHwgvKyEP2pxZLkfLXQfTyEEYRlOEzZvbzkgjDkROFvyXRhNDc3U0VFhbpVYkZGBmVmZp4zis8++4xqamrU/VSHDh2q7sdq9LDizmfhsiloxNrtf8cMQy6DpgqDJcEv/uLiYoqLi1M3Y+afExISAiP4+eefafHixeqGzX369KEjR45ofRbACmGEwwxDrpSc2xKEIZcbU4XR0tKiZg5FRUWqx7W1teq/WVlZgRGsX7+ehgwZomYf5/OwQhjhsIdxPszdGgthyGXOVGE0NjYSL0ny8vJUj/lDQq2trZSbmxsYAX+6kDuxc+dOtWwZN24cXX/99YYjtEIY3Ilw2BQ0hO3yAAhDLoG2C6OsrEx9ynDq1Kl08OBBmjlzJi1cuJB69+7daZR1dXXE//jBz2lvb5ejEKQl7tPLL79M06dPpwEDBlhyTBxElkBVVRXl5OTINhqmrUVFRYmNPMLn8/k6tqazJFmxYgWlpKRQenq6eurs2bNVcocPHx60Y1bNMMTooCHbCGCGIYfe1BkGf0eBNzl5QzM2NlZtehYUFFBiYmJgBLxkaWhooPz8fDp69Kj6MhQvU/r27QthyOW525ZwWtUCyB46hKnCYE5NTU1UWVmp9id4FpGdnU3V1dWUnJxMqampxJOStWvXqr2OyMhI9ffbbrvNEDFmGIaItALCYY8GMwytUtAKMl0YWr24gCAI4wKgnfWUcDkLBGGEXiv+FiAMOZauaylcPmcCYciVJoQhx9J1LYXLJ1khDLnShDDkWLquJcwwXJcy2zsMYdieAvs6gD0M+9i79cgQhlszJ9RvnCURAhkmzUAYXSSaPxfS1tYW+MuePXsoKSkp8PPAgQMpLS3NEyWCz2F4Io2WDQLC0EDttU2zcBIip9dr+dMoWdNCIAwNtF4vOIxPowgQoghAGBqFgBeUBiQHh3g9f1aihzA0aHu94DA+jSJACGYYujWAF5QuKWfGeT1/VlLHDEODttcLzs3je7tmIx09ciJoFvcf2EuD4v91Wcizg/vFRNPfxo3VqASEQBgaNeDmF5TG8Fx9FmH1m2/Rv8XfrjPMbmP+98A/aeLfHwipjXB5MoShkWkIQwOSTSEQhrXgIQwN3hCGBiSbQiAMa8FDGBq8IQwNSDaFQBjWgocwNHhDGBqQbAqBMKwFD2Fo8IYwNCDZFAJhWAsewtDgDWFoQLIpBMKwFjyEocEbwtCAZFMIhGEteAhDgzeEoQHJphAIw1rwEIYGbwhDA5JNIRCGteAhDA3eEIYGJJtCIAxrwUMYGrwhDA1INoVAGNaChzA0eEMYGpBsCoEwrAVvujD4FogVFRXqVokZGRmUmZnZ5QgbGxupvLycSktL1W0UjR5W3vkMwjDKhn1/hzCsZW+qMFgSfDPm4uJiiouLUzdj5p8TEjp/1fj48eNUVlZGp0+fpokTJ0IY1tYAvq2Kb6tqV5ypwmhpaaGamhoqKipSHaqtrVX/zcrK6tTBNWvW0IgRI2jjxo00YcIECEM7fTKBbp5BYYYhUwO6rZgqDF5m8JIkLy9P9ae+vp5aW1spNzc30L9du3bRhg0b6JlnnqFZs2ZBGLqZE4yDMHA9DN1yslUYvGSZPXs28T0+4+Pjgwqjrq6O+B8/ePnS3t6uO8aQ46qqqignJyfkdpzagJvHt3jRSoofcEtIaA8caqSpT/8jpDbC5clRUVFiQ43w+Xy+jq0ZLUmOHTtGU6ZMoejoaPU0vqlOnz59aPr06YbLEmx6iuUNexjYw9AuJlNnGGfOnFGbnCUlJRQbG6s2PQsKCigxMbHLDmJJop030UAsSbAk0S0oU4XBnWhqaqLKykp1WjU9PZ2ys7OpurpazSBSU1M79RPC0E2bbByEAWHoVpTpwtDtyPnGYUlyvsS6j4cwIAzdaoIwNEi5+QWlMTzsYWAPQ6dMVAyEoYEKwtCAZFMIPodhLXgIQ4M3hKEByaYQCMNa8BCGBm8IQwOSTSEQhrXgIQwN3hCGBiSbQiAMa8FDGBq8IQwNSDaFQBjWgocwNHhDGBqQbAqBMKwFD2Fo8IYwNCDZFAJhWAsewtDgDWFoQLIpBMKwFjyEQUQb162hEwf2d0t+76EjlDAgptu/R8cPorETHrE2c5pHW1P9n7Tv0B9Bo4/88jPFXDqk25jBA3rTI/9+v+YRrQ2DMKzlDWEQ0VuL5tPt+1ovmPw/B6fQA0/PuODnm/nEsmVr6b8vTgnpEFcdb6Xn8h4OqQ2zngxhmEW263YhDAjDsOKcLIzSl8opqke84RiCBbSfOUDPF04LqY1weTKEAWEY1rqThYEZhmH6RAMgDAjDsKAgDENEYRMAYUAYhsUOYRgiCpsACAPCMCx2CMMQUdgEQBgQhmGxQxiGiMImAMKAMAyLHcIwRBQ2ARAGhGFY7BCGIaKwCYAwIAzDYocwDBGFTQCEAWEYFjuEYYgobAIgDAjDsNghDENEYRMAYUAYhsUOYRgisiygoaGB2traAsfbs2cPJSUlBX4eOHAgpaWlmdYfCAPCMCwuCMMQkW0BVl96AcKAMAyLHcIwRGRbgOeE0dzcTBUVFepWiRkZGZSZmdkJ7qZNm+ijjz6iHj16UL9+/WjSpEl06aWXGiZA8s5n+Hp7cNwQhmE52hbgKWGwJPhmzMXFxRQXF6duxsw/JyQkBABv376dUlJSqFevXrRlyxbasWMHTZ061TABksIoLy6k+EP7DI/ZXcCBAYNp2tyXLvj5Zj7x+Tnzad+fvUM6xODIP6j0BWde7yPcv63qKWG0tLRQTU0NFRUVqYKtra1V/83KyuqygHfv3k2rV6+mOXPmGBa4pDAww8AMY+LfHzCsOScGeEoYjY2NxEuSvLw8xbq+vp5aW1spNze3S/arVq2i/v370/33G18ODsLQK1+vX3Hr7ZqNdPTIiaAw9h/YS4Pi/zWrPTu4X0w0/W3cWD2gDosKW2GwTDZv3kyzZs2inj17npOWuro64n/8KCsro/b2drHUrSwppFv+578uuL3GxKvpH7MduiSZ/x/0zUWXX/DY+InXnv6BSmdMCakNO59cVVVFOTk5dnbBtGNbPbaoqCixsUT4fD5fx9Z0lyTbtm1TG6Msi5iY7i+227FtzDD08ub1GYYOBavfhXX6JBVj9dhMPa165swZtclZUlJCsbGxatOzoKCAEhMTA7x436K8vJwKCwtpyJDur1x9NmAIQ6/kIAwiq19UepmRibJ6bKYKg5E0NTVRZWWlOq2anp5O2dnZVF1dTcnJyZSamqo2OPnTarx3wQ/+pNqMGcY78hCGXsFBGBCGXqXoRZkuDL1unH8UhKHHDMKAMPQqRS8KwsAnPQ0rxckf3DLsPEEYOox0YyAMCMOwViAMQ0S2BXhuD8MskliS6JH1+q0SdShY/aLS6ZNuDJ82PXjwYLfhv/76q/oUdbAHn3CQOq2MGYbHZxg6henmF5TXx/f666+rEwahPCIjIyk/Pz+UJgLPhTAgDE+fduRKd7MQIQwRzxFJLkm8fPd2HdxufkF5fXwQhk6GNWIkhWF0OLygjAg5++9uzh+EIVRbEIYQSJdP2XUoQBjYwxBdkhgVnZsLzmhsbl/je318mGHoZFgjBjMMDUiaIRCiJigbwiAMIegQhhBILEnkQJrQEoQhBBXCEAIJYciBNKElCEMIKoQhBBLCkANpQksQhhBUCEMIJIQhB9KEliAMIagQhhBICEMOpAktvfjii3TiRPBrlhodNjo6mmbOnGkUpvV3fDRcAxPOImhAcnCIm/OHGYZQYWGGIQQSMww5kCa0BGEIQYUwhEBCGHIgTWgJwhCCCmEIgYQw5ECa0BKEIQQVwhACCWHIgTShJQhDCCqEIQQSwpADaUJLEIYQVAhDCCSEIQfShJYgDCGoEIYQSAhDDqQJLeGankJQIQwhkBCGHEgbWrL6Myb44JZGkq1OikaXREO8NL6GhgZqa2vrxIfvrJeUlBT4Hd9dLy0tTZShXY1ZnTvThdHc3KxutMxXPs7IyKDMzMxObE+dOkW8Ttu1axf17duXnnrqKYqPjzfkb+YM4+yi83LBMWiri84wuQjQJmB17kwVBkuCb8ZcXFys7p3AN2PmnxMSEgJANm/eTD/++CM99thj9Omnn9KXX35JU6dONQRmpjAMD+6xAKuLzmP4bB2O1bkzVRgtLS1UU1NDRUVFCmptba36b1ZWVgDyvHnzaNy4cXTllVcS3+2dxfHmm29SRERE0ERAGBdep+E2g7pwUs5/pqeE0djYSLwkycvLU+Tr6+uptbWVcnNzA5l4+umnqbCwMHD3pilTphBLpF+/fhCG8+sVPbSYgN2yN3WGISmMuro64n/8KCsro/b2dotThcOBAAhERUWJQYjw+Xy+jq1hSSLGFg2BgCMImDrD4D0J3uQsKSkhviEsb3oWFBRQYmJiYPAffPAB8VkI/6bnF198QdOmTTOEgz0MQ0QIAAFxAqYKg3vb1NRElZWV6rRqeno6ZWdnU3V1NSUnJ1NqaqpaWvBp1d27d1OfPn3UadVBgwYZDhTCMESEABAQJ2C6MMR7/FeDEIZZZNEuCHRPAMJAdYAACGgTcK0wtEeIQBAAAUcSOOcsiSN7eQGdeu6559SpXK8+MD73ZtbNuYMwXFp3bi46HeReHp+bxwZh6FSvA2PcXHQ6OL08PjePzbPC4E+Y3nnnnTq16coYjM+VaVOddnPuPCsM95YTeg4CziUAYTg3N+gZCDiOgKuF8cQTTxDfg5K/Vt+/f3/Kz89X/+3u93y/y3Xr1tG2bdvokksuUcm46667HLN0OXz4sPqELX87uHfv3nTRRRfRfffdp/6f79f5+OOPqwsa8eOHH36g6dOn0/jx42ns2LG0ZMkS+vzzz2nlypV08cUXq5g1a9bQe++9py49YPRNYrsqM9iYFyxYoC7MdPr0aRo5cqS6pILTH92N5+abbw7khPO0dOlSioyMVL/bunWr+pnHO3ToUPU7/kb4jBkztC5MZSUT1wqDvzM3efJkmj9/vnox8IVXWQgTJ05UwigtLT3n96+88opKwIMPPqiSdfToUfr444/PuaKYlQnwH4vHwxctuuOOO2jMmDHq17/88gt99dVX6lJ1q1evpgEDBqgYfqxfv56+/vpruv322wPC4I/qszxGjRqlPtbPQvn9999VITpRGEZjfvfdd4k3CDmvPBb+CsKwYcPsSI/WMYON55577lE54Tc1zuNDDz1E11xzTUAY/NULvr6M/0JUEIYW8uBBBw4cUNfdSElJUZcH3Lt3b+Ddk6/h8f7776svy3UUhv/3jz76KM2dO5dee+21gNkFuiTWxDfffENvv/22mkmc/dixYwfxi+f48eOqoGJiYtQL6IYbblDf5fHPMIYMGUL8bWN+kW3fvl3NOHj8fnmKdVaoIZ0x81j4wbLnd2meaTj1EWw83GfOCefx1ltvpZ07d6oZo3+G8d1339G3336rZhb8yUwIQyDLLAy+WM+cOXOUjTuKYdWqVdSrVy81Re/q91dddRV98skn9Oyzzwr0RL4JXjrw+B555JFuhTFixAglu8svv1zNjPjCuLwk8wvjpptuUgXJ0uQZCM80eKniVGHojJmF8dtvvykJ8r+O35qWz0JoLQYbD7e8bNkyuvrqq9UXOFn8nBtedvKS5Pvvv6fhw4cTS4dnIRBGaLlQz+YXFL8DM2h++Pcq+EXEaz+eRfB6v6vfs707CmPDhg3qHZiXJcuXLxfoXWhNnF1svO/A70JcUCxBFgFfBW3x4sVqicJFx38/Wxj79+9XexhbtmxRSxEWrFuEcfaYuf/8LWjeo+K9G/9SLTTS5j07WA75TY7rkmdKnJ+FCxeqb4Kz5P3C4DcLvkwEXx6Tl9rYwwgxVywMBrlo0aKAMLp6MXScYfgPuW/fvi6XJBMmTFAboXY/uprOssx4tsB7Nf71PBceX5KfxcFLmLOFwZcg4Hdi3gt5+OGHO8227B7j2cfXHbPT+t1df4KNh9/MXn311cBe0smTJ4lnjHytGb8w+DKY/BkNXm7zmwGEEWLmQxEGH7q8vJwGDx4c2PTk63pwkpwgDN4w43eW0aNHB95JWQwzZ87sJAwupCNHjqj1/FtvvXWOMG655Rb68MMP6dprr1Vj7UqeIaZB7Om6YxY7oMkNBRsPL6F5NuG/twpv5PLSw392i5ckXIt8RoiXK/x33q/TuX2HycPq1LyrzpKEKoxjx44Fzi7w/VT4Woe8iXb33XdbybzbYx06dChwWpXPavDsgU/78ianf4bR8cndCaNjjJOFwf083zE7IlFBOtHVeHi2x6fLWQ7+0/ncBC9LuP74jcsvDP49L234lDhfpArCcHrG0T8QAIFuCbhqhoE8ggAI2EsAwrCXP44OAq4iAGG4Kl3oLAjYSwDCsJc/jg4CriIAYbgqXegsCNhLAMKwlz+ODgKuIgBhuCpd6CwI2EsAwrCXP44OAq4iAGG4Kl3oLAjYS+D/AK7QRZPxZyAsAAAAAElFTkSuQmCC;" vertex="1" parent="1">
          <mxGeometry x="630" y="110" width="172" height="136" as="geometry" />
        </mxCell>
        <mxCell id="r2PIuUKBtOEbJUY47sBG-12" value="&lt;span style=&quot;color: rgb(33 , 33 , 33) ; font-family: monospace ; font-size: 14px ; background-color: rgb(255 , 255 , 255)&quot;&gt;A1_area&lt;/span&gt;" style="text;whiteSpace=wrap;html=1;fontFamily=Times New Roman;" vertex="1" parent="1">
          <mxGeometry x="690" y="102" width="90" height="30" as="geometry" />
        </mxCell>
      </root>
    </mxGraphModel>
  </diagram>
</mxfile>
